Barlow-Light.ufo
<glyph name="period" format="1">
  <advance width="289"/>
  <unicode hex="002E"/>
  <outline>
    <contour>
      <point x="167" y="0"/>
      <point x="186" y="18"/>
      <point x="186" y="41" type="curve" smooth="yes"/>
      <point x="186" y="63"/>
      <point x="167" y="81"/>
      <point x="145" y="81" type="curve" smooth="yes"/>
      <point x="123" y="81"/>
      <point x="104" y="63"/>
      <point x="104" y="41" type="curve" smooth="yes"/>
      <point x="104" y="18"/>
      <point x="122" y="0"/>
      <point x="145" y="0" type="curve" smooth="yes"/>
    </contour>
  </outline>
</glyph>
<glyph name="A" format="1">
  <advance width="450"/>
  <unicode hex="0041"/>
  <outline>
    <contour>
      <point x="71" y="0" type="line"/>
      <point x="225" y="656" type="line"/>
      <point x="379" y="0" type="line"/>
      <point x="401" y="0" type="line"/>
      <point x="236" y="700" type="line"/>
      <point x="214" y="700" type="line"/>
      <point x="49" y="0" type="line"/>
    </contour>
    <contour>
      <point x="348" y="145" type="line"/>
      <point x="348" y="166" type="line"/>
      <point x="101" y="166" type="line"/>
      <point x="101" y="145" type="line"/>
    </contour>
  </outline>
</glyph>
<glyph name="B" format="1">
  <advance width="499"/>
  <unicode hex="0042"/>
  <outline>
    <contour>
      <point x="122" y="351" type="line"/>
      <point x="246" y="351" type="line" smooth="yes"/>
      <point x="348" y="351"/>
      <point x="410" y="288"/>
      <point x="410" y="186" type="curve" smooth="yes"/>
      <point x="410" y="84"/>
      <point x="348" y="22"/>
      <point x="246" y="22" type="curve" smooth="yes"/>
      <point x="122" y="22" type="line"/>
    </contour>
    <contour>
      <point x="122" y="679" type="line"/>
      <point x="246" y="679" type="line" smooth="yes"/>
      <point x="348" y="679"/>
      <point x="410" y="618"/>
      <point x="410" y="523" type="curve" smooth="yes"/>
      <point x="410" y="428"/>
      <point x="348" y="372"/>
      <point x="246" y="372" type="curve" smooth="yes"/>
      <point x="122" y="372" type="line"/>
    </contour>
    <contour>
      <point x="246" y="351" type="line" smooth="yes"/>
      <point x="361" y="351"/>
      <point x="432" y="415"/>
      <point x="432" y="523" type="curve" smooth="yes"/>
      <point x="432" y="631"/>
      <point x="361" y="700"/>
      <point x="246" y="700" type="curve" smooth="yes"/>
      <point x="100" y="700" type="line"/>
      <point x="100" y="351" type="line"/>
    </contour>
    <contour>
      <point x="246" y="0" type="line" smooth="yes"/>
      <point x="361" y="0"/>
      <point x="432" y="71"/>
      <point x="432" y="186" type="curve" smooth="yes"/>
      <point x="432" y="301"/>
      <point x="361" y="372"/>
      <point x="246" y="372" type="curve" smooth="yes"/>
      <point x="100" y="372" type="line"/>
      <point x="100" y="0" type="line"/>
    </contour>
  </outline>
</glyph>
<glyph name="C" format="1">
  <advance width="478"/>
  <unicode hex="0043"/>
  <outline>
    <contour>
      <point x="351" y="-11"/>
      <point x="413" y="50"/>
      <point x="413" y="150" type="curve" smooth="yes"/>
      <point x="413" y="152" type="line"/>
      <point x="391" y="152" type="line"/>
      <point x="391" y="150" type="line" smooth="yes"/>
      <point x="391" y="64"/>
      <point x="339" y="11"/>
      <point x="252" y="11" type="curve" smooth="yes"/>
      <point x="165" y="11"/>
      <point x="113" y="64"/>
      <point x="113" y="150" type="curve" smooth="yes"/>
      <point x="113" y="550" type="line" smooth="yes"/>
      <point x="113" y="637"/>
      <point x="167" y="690"/>
      <point x="252" y="690" type="curve" smooth="yes"/>
      <point x="337" y="690"/>
      <point x="391" y="637"/>
      <point x="391" y="550" type="curve" smooth="yes"/>
      <point x="391" y="548" type="line"/>
      <point x="413" y="548" type="line"/>
      <point x="413" y="550" type="line" smooth="yes"/>
      <point x="413" y="650"/>
      <point x="351" y="711"/>
      <point x="252" y="711" type="curve" smooth="yes"/>
      <point x="153" y="711"/>
      <point x="91" y="650"/>
      <point x="91" y="550" type="curve" smooth="yes"/>
      <point x="91" y="150" type="line" smooth="yes"/>
      <point x="91" y="50"/>
      <point x="153" y="-11"/>
      <point x="252" y="-11" type="curve" smooth="yes"/>
    </contour>
  </outline>
</glyph>
<glyph name="D" format="1">
  <advance width="512"/>
  <unicode hex="0044"/>
  <outline>
    <contour>
      <point x="261" y="0" type="line" smooth="yes"/>
      <point x="361" y="0"/>
      <point x="422" y="61"/>
      <point x="422" y="161" type="curve" smooth="yes"/>
      <point x="422" y="539" type="line" smooth="yes"/>
      <point x="422" y="639"/>
      <point x="361" y="700"/>
      <point x="261" y="700" type="curve" smooth="yes"/>
      <point x="100" y="700" type="line"/>
      <point x="100" y="0" type="line"/>
    </contour>
    <contour>
      <point x="122" y="679" type="line"/>
      <point x="261" y="679" type="line" smooth="yes"/>
      <point x="347" y="679"/>
      <point x="400" y="626"/>
      <point x="400" y="539" type="curve" smooth="yes"/>
      <point x="400" y="161" type="line" smooth="yes"/>
      <point x="400" y="75"/>
      <point x="347" y="22"/>
      <point x="261" y="22" type="curve" smooth="yes"/>
      <point x="122" y="22" type="line"/>
    </contour>
  </outline>
</glyph>
<glyph name="E" format="1">
  <advance width="477"/>
  <unicode hex="0045"/>
  <outline>
    <contour>
      <point x="421" y="0" type="line"/>
      <point x="421" y="22" type="line"/>
      <point x="122" y="22" type="line"/>
      <point x="122" y="679" type="line"/>
      <point x="421" y="679" type="line"/>
      <point x="421" y="700" type="line"/>
      <point x="100" y="700" type="line"/>
      <point x="100" y="0" type="line"/>
    </contour>
    <contour>
      <point x="316" y="340" type="line"/>
      <point x="316" y="361" type="line"/>
      <point x="111" y="361" type="line"/>
      <point x="111" y="340" type="line"/>
    </contour>
  </outline>
</glyph>
<glyph name="F" format="1">
  <advance width="475"/>
  <unicode hex="0046"/>
  <outline>
    <contour>
      <point x="122" y="0" type="line"/>
      <point x="122" y="679" type="line"/>
      <point x="421" y="679" type="line"/>
      <point x="421" y="700" type="line"/>
      <point x="100" y="700" type="line"/>
      <point x="100" y="0" type="line"/>
    </contour>
    <contour>
      <point x="316" y="340" type="line"/>
      <point x="316" y="361" type="line"/>
      <point x="111" y="361" type="line"/>
      <point x="111" y="340" type="line"/>
    </contour>
  </outline>
</glyph>
<glyph name="G" format="1">
  <advance width="493"/>
  <unicode hex="0047"/>
  <outline>
    <contour>
      <point x="351" y="-11"/>
      <point x="413" y="51"/>
      <point x="413" y="150" type="curve"/>
      <point x="413" y="361" type="line"/>
      <point x="252" y="361" type="line"/>
      <point x="252" y="340" type="line"/>
      <point x="391" y="340" type="line"/>
      <point x="391" y="150" type="line"/>
      <point x="391" y="63"/>
      <point x="339" y="11"/>
      <point x="252" y="11" type="curve" smooth="yes"/>
      <point x="165" y="11"/>
      <point x="113" y="63"/>
      <point x="113" y="150" type="curve"/>
      <point x="113" y="550" type="line"/>
      <point x="113" y="637"/>
      <point x="165" y="690"/>
      <point x="252" y="690" type="curve" smooth="yes"/>
      <point x="339" y="690"/>
      <point x="391" y="637"/>
      <point x="391" y="550" type="curve"/>
      <point x="413" y="550" type="line"/>
      <point x="413" y="649"/>
      <point x="351" y="711"/>
      <point x="252" y="711" type="curve" smooth="yes"/>
      <point x="153" y="711"/>
      <point x="91" y="649"/>
      <point x="91" y="550" type="curve"/>
      <point x="91" y="150" type="line"/>
      <point x="91" y="51"/>
      <point x="153" y="-11"/>
      <point x="252" y="-11" type="curve" smooth="yes"/>
    </contour>
  </outline>
</glyph>
<glyph name="J" format="1">
  <advance width="473"/>
  <unicode hex="004A"/>
  <outline>
    <contour>
      <point x="317" y="-11"/>
      <point x="377" y="50"/>
      <point x="377" y="150" type="curve" smooth="yes"/>
      <point x="377" y="700" type="line"/>
      <point x="355" y="700" type="line"/>
      <point x="355" y="150" type="line"/>
      <point x="355" y="64"/>
      <point x="303" y="11"/>
      <point x="219" y="11" type="curve" smooth="yes"/>
      <point x="135" y="11"/>
      <point x="83" y="64"/>
      <point x="83" y="150" type="curve" smooth="yes"/>
      <point x="83" y="195" type="line"/>
      <point x="61" y="195" type="line"/>
      <point x="61" y="150" type="line" smooth="yes"/>
      <point x="61" y="50"/>
      <point x="121" y="-11"/>
      <point x="219" y="-11" type="curve" smooth="yes"/>
    </contour>
  </outline>
</glyph>
<glyph name="K" format="1">
  <advance width="487"/>
  <unicode hex="004B"/>
  <outline>
    <contour>
      <point x="432" y="0" type="line"/>
      <point x="136" y="350" type="line"/>
      <point x="432" y="700" type="line"/>
      <point x="406" y="700" type="line"/>
      <point x="108" y="350" type="line"/>
      <point x="406" y="0" type="line"/>
    </contour>
    <contour>
      <point x="122" y="0" type="line"/>
      <point x="122" y="700" type="line"/>
      <point x="100" y="700" type="line"/>
      <point x="100" y="0" type="line"/>
    </contour>
  </outline>
</glyph>
<glyph name="L" format="1">
  <advance width="465"/>
  <unicode hex="004C"/>
  <outline>
    <contour>
      <point x="411" y="0" type="line"/>
      <point x="411" y="22" type="line"/>
      <point x="122" y="22" type="line"/>
      <point x="122" y="700" type="line"/>
      <point x="100" y="700" type="line"/>
      <point x="100" y="0" type="line"/>
    </contour>
  </outline>
</glyph>
<glyph name="M" format="1">
  <advance width="622"/>
  <unicode hex="004D"/>
  <outline>
    <contour>
      <point x="151" y="0" type="line"/>
      <point x="154" y="655" type="line"/>
      <point x="311" y="324" type="line"/>
      <point x="469" y="655" type="line"/>
      <point x="469" y="0" type="line"/>
      <point x="490" y="0" type="line"/>
      <point x="490" y="700" type="line"/>
      <point x="468" y="700" type="line"/>
      <point x="311" y="372" type="line"/>
      <point x="154" y="700" type="line"/>
      <point x="132" y="700" type="line"/>
      <point x="132" y="0" type="line"/>
    </contour>
  </outline>
</glyph>
<glyph name="N" format="1">
  <advance width="522"/>
  <unicode hex="004E"/>
  <outline>
    <contour>
      <point x="122" y="0" type="line"/>
      <point x="122" y="647" type="line"/>
      <point x="399" y="0" type="line"/>
      <point x="422" y="0" type="line"/>
      <point x="422" y="700" type="line"/>
      <point x="400" y="700" type="line"/>
      <point x="400" y="53" type="line"/>
      <point x="123" y="700" type="line"/>
      <point x="100" y="700" type="line"/>
      <point x="100" y="0" type="line"/>
    </contour>
  </outline>
</glyph>
<glyph name="O" format="1">
  <advance width="502"/>
  <unicode hex="004F"/>
  <outline>
    <contour>
      <point x="340" y="-11"/>
      <point x="412" y="60"/>
      <point x="412" y="150" type="curve" smooth="yes"/>
      <point x="412" y="550" type="line" smooth="yes"/>
      <point x="412" y="640"/>
      <point x="340" y="711"/>
      <point x="251" y="711" type="curve" smooth="yes"/>
      <point x="162" y="711"/>
      <point x="90" y="640"/>
      <point x="90" y="550" type="curve" smooth="yes"/>
      <point x="90" y="150" type="line" smooth="yes"/>
      <point x="90" y="60"/>
      <point x="162" y="-11"/>
      <point x="251" y="-11" type="curve" smooth="yes"/>
    </contour>
    <contour>
      <point x="172" y="11"/>
      <point x="112" y="72"/>
      <point x="112" y="150" type="curve" smooth="yes"/>
      <point x="112" y="550" type="line" smooth="yes"/>
      <point x="112" y="629"/>
      <point x="174" y="690"/>
      <point x="251" y="690" type="curve" smooth="yes"/>
      <point x="328" y="690"/>
      <point x="390" y="629"/>
      <point x="390" y="550" type="curve" smooth="yes"/>
      <point x="390" y="150" type="line" smooth="yes"/>
      <point x="390" y="72"/>
      <point x="330" y="11"/>
      <point x="251" y="11" type="curve" smooth="yes"/>
    </contour>
  </outline>
</glyph>
<glyph name="P" format="1">
  <advance width="493"/>
  <unicode hex="0050"/>
  <outline>
    <contour>
      <point x="122" y="0" type="line"/>
      <point x="122" y="679" type="line"/>
      <point x="246" y="679" type="line" smooth="yes"/>
      <point x="346" y="679"/>
      <point x="407" y="616"/>
      <point x="407" y="513" type="curve" smooth="yes"/>
      <point x="407" y="409"/>
      <point x="346" y="346"/>
      <point x="246" y="346" type="curve" smooth="yes"/>
      <point x="117" y="346" type="line"/>
      <point x="117" y="324" type="line"/>
      <point x="246" y="325" type="line" smooth="yes"/>
      <point x="359" y="326"/>
      <point x="429" y="397"/>
      <point x="429" y="512" type="curve" smooth="yes"/>
      <point x="429" y="629"/>
      <point x="359" y="700"/>
      <point x="246" y="700" type="curve" smooth="yes"/>
      <point x="100" y="700" type="line"/>
      <point x="100" y="0" type="line"/>
    </contour>
  </outline>
</glyph>
<glyph name="R" format="1">
  <advance width="495"/>
  <unicode hex="0052"/>
  <outline>
    <contour>
      <point x="122" y="0" type="line"/>
      <point x="122" y="679" type="line"/>
      <point x="249" y="679" type="line" smooth="yes"/>
      <point x="349" y="679"/>
      <point x="410" y="616"/>
      <point x="410" y="512" type="curve" smooth="yes"/>
      <point x="410" y="408"/>
      <point x="349" y="344"/>
      <point x="249" y="344" type="curve" smooth="yes"/>
      <point x="117" y="344" type="line"/>
      <point x="117" y="322" type="line"/>
      <point x="249" y="323" type="line" smooth="yes"/>
      <point x="362" y="324"/>
      <point x="432" y="395"/>
      <point x="432" y="511" type="curve" smooth="yes"/>
      <point x="432" y="628"/>
      <point x="362" y="700"/>
      <point x="249" y="700" type="curve" smooth="yes"/>
      <point x="100" y="700" type="line"/>
      <point x="100" y="0" type="line"/>
    </contour>
    <contour>
      <point x="411" y="0" type="line"/>
      <point x="269" y="343" type="line"/>
      <point x="249" y="335" type="line"/>
      <point x="387" y="0" type="line"/>
    </contour>
  </outline>
</glyph>
<glyph name="S" format="1">
  <advance width="466"/>
  <unicode hex="0053"/>
  <outline>
    <contour>
      <point x="330" y="-11"/>
      <point x="394" y="50"/>
      <point x="394" y="149" type="curve" smooth="yes"/>
      <point x="394" y="255"/>
      <point x="321" y="307"/>
      <point x="239" y="361" type="curve" smooth="yes"/>
      <point x="158" y="414"/>
      <point x="94" y="459"/>
      <point x="94" y="552" type="curve" smooth="yes"/>
      <point x="94" y="636"/>
      <point x="146" y="690"/>
      <point x="230" y="690" type="curve" smooth="yes"/>
      <point x="314" y="690"/>
      <point x="366" y="637"/>
      <point x="366" y="550" type="curve" smooth="yes"/>
      <point x="366" y="500" type="line"/>
      <point x="388" y="500" type="line"/>
      <point x="388" y="550" type="line" smooth="yes"/>
      <point x="388" y="650"/>
      <point x="328" y="711"/>
      <point x="230" y="711" type="curve" smooth="yes"/>
      <point x="132" y="711"/>
      <point x="72" y="649"/>
      <point x="72" y="553" type="curve" smooth="yes"/>
      <point x="72" y="446"/>
      <point x="147" y="394"/>
      <point x="225" y="342" type="curve" smooth="yes"/>
      <point x="302" y="291"/>
      <point x="372" y="244"/>
      <point x="372" y="148" type="curve" smooth="yes"/>
      <point x="372" y="63"/>
      <point x="316" y="11"/>
      <point x="234" y="11" type="curve" smooth="yes"/>
      <point x="146" y="11"/>
      <point x="100" y="64"/>
      <point x="100" y="150" type="curve" smooth="yes"/>
      <point x="100" y="200" type="line"/>
      <point x="78" y="200" type="line"/>
      <point x="78" y="150" type="line" smooth="yes"/>
      <point x="78" y="50"/>
      <point x="133" y="-11"/>
      <point x="235" y="-11" type="curve" smooth="yes"/>
    </contour>
  </outline>
</glyph>
<glyph name="T" format="1">
  <advance width="430"/>
  <unicode hex="0054"/>
  <outline>
    <contour>
      <point x="222" y="0" type="line"/>
      <point x="222" y="689" type="line"/>
      <point x="200" y="689" type="line"/>
      <point x="200" y="0" type="line"/>
    </contour>
    <contour>
      <point x="376" y="679" type="line"/>
      <point x="376" y="700" type="line"/>
      <point x="54" y="700" type="line"/>
      <point x="54" y="679" type="line"/>
    </contour>
  </outline>
</glyph>
<glyph name="U" format="1">
  <advance width="514"/>
  <unicode hex="0055"/>
  <outline>
    <contour>
      <point x="356" y="-11"/>
      <point x="418" y="50"/>
      <point x="418" y="150" type="curve" smooth="yes"/>
      <point x="418" y="700" type="line"/>
      <point x="396" y="700" type="line"/>
      <point x="396" y="150" type="line" smooth="yes"/>
      <point x="396" y="64"/>
      <point x="344" y="11"/>
      <point x="257" y="11" type="curve" smooth="yes"/>
      <point x="170" y="11"/>
      <point x="118" y="64"/>
      <point x="118" y="150" type="curve" smooth="yes"/>
      <point x="118" y="700" type="line"/>
      <point x="96" y="700" type="line"/>
      <point x="96" y="150" type="line" smooth="yes"/>
      <point x="96" y="50"/>
      <point x="158" y="-11"/>
      <point x="257" y="-11" type="curve" smooth="yes"/>
    </contour>
  </outline>
</glyph>
<glyph name="W" format="1">
  <advance width="644"/>
  <unicode hex="0057"/>
  <outline>
    <contour>
      <point x="208" y="0" type="line"/>
      <point x="322" y="648" type="line"/>
      <point x="436" y="0" type="line"/>
      <point x="458" y="0" type="line"/>
      <point x="583" y="700" type="line"/>
      <point x="561" y="700" type="line"/>
      <point x="447" y="52" type="line"/>
      <point x="333" y="700" type="line"/>
      <point x="311" y="700" type="line"/>
      <point x="197" y="52" type="line"/>
      <point x="83" y="700" type="line"/>
      <point x="61" y="700" type="line"/>
      <point x="186" y="0" type="line"/>
    </contour>
  </outline>
</glyph>
<glyph name="X" format="1">
  <advance width="440"/>
  <unicode hex="0058"/>
  <outline>
    <contour>
      <point x="363" y="700" type="line"/>
      <point x="386" y="700" type="line"/>
      <point x="77" y="0" type="line"/>
      <point x="54" y="0" type="line"/>
    </contour>
    <contour>
      <point x="54" y="700" type="line"/>
      <point x="77" y="700" type="line"/>
      <point x="386" y="0" type="line"/>
      <point x="363" y="0" type="line"/>
    </contour>
  </outline>
</glyph>
<glyph name="Y" format="1">
  <advance width="436"/>
  <unicode hex="0059"/>
  <outline>
    <contour>
      <point x="385" y="700" type="line"/>
      <point x="360" y="700" type="line"/>
      <point x="218" y="379" type="line"/>
      <point x="77" y="700" type="line"/>
      <point x="51" y="700" type="line"/>
      <point x="218" y="328" type="line"/>
    </contour>
    <contour>
      <point x="229" y="0" type="line"/>
      <point x="229" y="350" type="line"/>
      <point x="207" y="350" type="line"/>
      <point x="207" y="0" type="line"/>
    </contour>
  </outline>
</glyph>
<glyph name="Z" format="1">
  <advance width="446"/>
  <unicode hex="005A"/>
  <outline>
    <contour>
      <point x="373" y="0" type="line"/>
      <point x="373" y="22" type="line"/>
      <point x="89" y="22" type="line"/>
      <point x="389" y="700" type="line"/>
      <point x="73" y="700" type="line"/>
      <point x="73" y="679" type="line"/>
      <point x="357" y="679" type="line"/>
      <point x="57" y="0" type="line"/>
    </contour>
  </outline>
</glyph>
<glyph name="a" format="1">
  <advance width="470"/>
  <unicode hex="0061"/>
  <outline>
    <contour>
      <point x="324" y="-11"/>
      <point x="387" y="52"/>
      <point x="387" y="152" type="curve" smooth="yes"/>
      <point x="387" y="348" type="line" smooth="yes"/>
      <point x="387" y="448"/>
      <point x="324" y="511"/>
      <point x="228" y="511" type="curve" smooth="yes"/>
      <point x="131" y="511"/>
      <point x="68" y="450"/>
      <point x="68" y="350" type="curve" smooth="yes"/>
      <point x="68" y="150" type="line" smooth="yes"/>
      <point x="68" y="50"/>
      <point x="131" y="-11"/>
      <point x="228" y="-11" type="curve" smooth="yes"/>
    </contour>
    <contour>
      <point x="142" y="11"/>
      <point x="90" y="64"/>
      <point x="90" y="150" type="curve" smooth="yes"/>
      <point x="90" y="350" type="line" smooth="yes"/>
      <point x="90" y="436"/>
      <point x="144" y="490"/>
      <point x="229" y="490" type="curve" smooth="yes"/>
      <point x="314" y="490"/>
      <point x="368" y="436"/>
      <point x="368" y="350" type="curve" smooth="yes"/>
      <point x="368" y="150" type="line" smooth="yes"/>
      <point x="368" y="64"/>
      <point x="316" y="11"/>
      <point x="229" y="11" type="curve" smooth="yes"/>
    </contour>
    <contour>
      <point x="390" y="0" type="line"/>
      <point x="390" y="500" type="line"/>
      <point x="368" y="500" type="line"/>
      <point x="368" y="0" type="line"/>
    </contour>
  </outline>
</glyph>
<glyph name="b" format="1">
  <advance width="470"/>
  <unicode hex="0062"/>
  <outline>
    <contour>
      <point x="342" y="-11"/>
      <point x="402" y="50"/>
      <point x="402" y="150" type="curve" smooth="yes"/>
      <point x="402" y="350" type="line" smooth="yes"/>
      <point x="402" y="450"/>
      <point x="342" y="511"/>
      <point x="244" y="511" type="curve" smooth="yes"/>
      <point x="146" y="511"/>
      <point x="82" y="448"/>
      <point x="82" y="348" type="curve" smooth="yes"/>
      <point x="82" y="152" type="line" smooth="yes"/>
      <point x="82" y="52"/>
      <point x="146" y="-11"/>
      <point x="244" y="-11" type="curve" smooth="yes"/>
    </contour>
    <contour>
      <point x="102" y="0" type="line"/>
      <point x="102" y="700" type="line"/>
      <point x="80" y="700" type="line"/>
      <point x="80" y="0" type="line"/>
    </contour>
    <contour>
      <point x="155" y="11"/>
      <point x="102" y="64"/>
      <point x="102" y="150" type="curve" smooth="yes"/>
      <point x="102" y="350" type="line" smooth="yes"/>
      <point x="102" y="437"/>
      <point x="155" y="490"/>
      <point x="241" y="490" type="curve" smooth="yes"/>
      <point x="327" y="490"/>
      <point x="380" y="437"/>
      <point x="380" y="350" type="curve" smooth="yes"/>
      <point x="380" y="150" type="line" smooth="yes"/>
      <point x="380" y="64"/>
      <point x="327" y="11"/>
      <point x="241" y="11" type="curve" smooth="yes"/>
    </contour>
  </outline>
</glyph>
<glyph name="e" format="1">
  <advance width="452"/>
  <unicode hex="0065"/>
  <outline>
    <contour>
      <point x="328" y="-11"/>
      <point x="390" y="50"/>
      <point x="390" y="150" type="curve" smooth="yes"/>
      <point x="390" y="154" type="line"/>
      <point x="368" y="154" type="line"/>
      <point x="368" y="150" type="line" smooth="yes"/>
      <point x="368" y="64"/>
      <point x="316" y="11"/>
      <point x="229" y="11" type="curve" smooth="yes"/>
      <point x="142" y="11"/>
      <point x="90" y="64"/>
      <point x="90" y="150" type="curve" smooth="yes"/>
      <point x="90" y="350" type="line" smooth="yes"/>
      <point x="90" y="437"/>
      <point x="144" y="490"/>
      <point x="229" y="490" type="curve" smooth="yes"/>
      <point x="314" y="490"/>
      <point x="368" y="437"/>
      <point x="368" y="350" type="curve" smooth="yes"/>
      <point x="368" y="261" type="line"/>
      <point x="85" y="261" type="line"/>
      <point x="85" y="240" type="line"/>
      <point x="390" y="240" type="line"/>
      <point x="390" y="350" type="line" smooth="yes"/>
      <point x="390" y="450"/>
      <point x="328" y="511"/>
      <point x="229" y="511" type="curve" smooth="yes"/>
      <point x="130" y="511"/>
      <point x="68" y="450"/>
      <point x="68" y="350" type="curve" smooth="yes"/>
      <point x="68" y="150" type="line" smooth="yes"/>
      <point x="68" y="50"/>
      <point x="130" y="-11"/>
      <point x="229" y="-11" type="curve" smooth="yes"/>
    </contour>
  </outline>
</glyph>
<glyph name="g" format="1">
  <advance width="470"/>
  <unicode hex="0067"/>
  <outline>
    <contour>
      <point x="329" y="-211"/>
      <point x="390" y="-150"/>
      <point x="390" y="-50" type="curve" smooth="yes"/>
      <point x="390" y="500" type="line"/>
      <point x="368" y="500" type="line"/>
      <point x="368" y="-50" type="line" smooth="yes"/>
      <point x="368" y="-137"/>
      <point x="315" y="-190"/>
      <point x="229" y="-190" type="curve"/>
      <point x="229" y="-211" type="line"/>
    </contour>
    <contour>
      <point x="143" y="11"/>
      <point x="90" y="64"/>
      <point x="90" y="150" type="curve" smooth="yes"/>
      <point x="90" y="350" type="line" smooth="yes"/>
      <point x="90" y="437"/>
      <point x="143" y="490"/>
      <point x="229" y="490" type="curve" smooth="yes"/>
      <point x="315" y="490"/>
      <point x="368" y="437"/>
      <point x="368" y="350" type="curve" smooth="yes"/>
      <point x="368" y="150" type="line" smooth="yes"/>
      <point x="368" y="64"/>
      <point x="315" y="11"/>
      <point x="229" y="11" type="curve" smooth="yes"/>
    </contour>
    <contour>
      <point x="325" y="-11"/>
      <point x="387" y="53"/>
      <point x="387" y="152" type="curve" smooth="yes"/>
      <point x="387" y="348" type="line" smooth="yes"/>
      <point x="387" y="447"/>
      <point x="325" y="511"/>
      <point x="227" y="511" type="curve" smooth="yes"/>
      <point x="130" y="511"/>
      <point x="68" y="450"/>
      <point x="68" y="350" type="curve" smooth="yes"/>
      <point x="68" y="150" type="line" smooth="yes"/>
      <point x="68" y="50"/>
      <point x="130" y="-11"/>
      <point x="227" y="-11" type="curve" smooth="yes"/>
    </contour>
  </outline>
</glyph>
<glyph name="i" format="1">
  <advance width="182"/>
  <unicode hex="0069"/>
  <outline>
    <contour>
      <point x="102" y="0" type="line"/>
      <point x="102" y="500" type="line"/>
      <point x="80" y="500" type="line"/>
      <point x="80" y="0" type="line"/>
    </contour>
    <contour>
      <point x="113" y="659"/>
      <point x="132" y="677"/>
      <point x="132" y="700" type="curve" smooth="yes"/>
      <point x="132" y="722"/>
      <point x="113" y="740"/>
      <point x="91" y="740" type="curve" smooth="yes"/>
      <point x="69" y="740"/>
      <point x="50" y="722"/>
      <point x="50" y="700" type="curve" smooth="yes"/>
      <point x="50" y="677"/>
      <point x="68" y="659"/>
      <point x="91" y="659" type="curve" smooth="yes"/>
    </contour>
  </outline>
</glyph>
<glyph name="j" format="1">
  <advance width="182"/>
  <unicode hex="006A"/>
  <outline>
    <contour>
      <point x="50" y="-211"/>
      <point x="102" y="-159"/>
      <point x="102" y="-74" type="curve" smooth="yes"/>
      <point x="102" y="500" type="line"/>
      <point x="80" y="500" type="line"/>
      <point x="80" y="-74" type="line" smooth="yes"/>
      <point x="80" y="-146"/>
      <point x="37" y="-190"/>
      <point x="-34" y="-190" type="curve"/>
      <point x="-34" y="-211" type="line"/>
    </contour>
    <contour>
      <point x="116" y="659"/>
      <point x="132" y="675"/>
      <point x="132" y="700" type="curve" smooth="yes"/>
      <point x="132" y="725"/>
      <point x="116" y="740"/>
      <point x="91" y="740" type="curve" smooth="yes"/>
      <point x="66" y="740"/>
      <point x="50" y="725"/>
      <point x="50" y="700" type="curve" smooth="yes"/>
      <point x="50" y="675"/>
      <point x="66" y="659"/>
      <point x="91" y="659" type="curve" smooth="yes"/>
    </contour>
  </outline>
</glyph>
<glyph name="k" format="1">
  <advance width="398"/>
  <unicode hex="006B"/>
  <outline>
    <contour>
      <point x="360" y="0" type="line"/>
      <point x="114" y="250" type="line"/>
      <point x="362" y="500" type="line"/>
      <point x="331" y="500" type="line"/>
      <point x="82" y="250" type="line"/>
      <point x="329" y="0" type="line"/>
    </contour>
    <contour>
      <point x="102" y="1" type="line"/>
      <point x="103" y="700" type="line"/>
      <point x="81" y="700" type="line"/>
      <point x="80" y="1" type="line"/>
    </contour>
  </outline>
</glyph>
<glyph name="m" format="1">
  <advance width="756"/>
  <unicode hex="006D"/>
  <outline>
    <contour>
      <point x="682" y="0" type="line"/>
      <point x="682" y="350" type="line" smooth="yes"/>
      <point x="682" y="450"/>
      <point x="621" y="511"/>
      <point x="527" y="511" type="curve" smooth="yes"/>
      <point x="432" y="511"/>
      <point x="377" y="450"/>
      <point x="377" y="350" type="curve"/>
      <point x="392" y="350" type="line"/>
      <point x="392" y="437"/>
      <point x="443" y="490"/>
      <point x="526" y="490" type="curve" smooth="yes"/>
      <point x="609" y="490"/>
      <point x="660" y="437"/>
      <point x="660" y="350" type="curve" smooth="yes"/>
      <point x="660" y="0" type="line"/>
    </contour>
    <contour>
      <point x="102" y="0" type="line"/>
      <point x="102" y="500" type="line"/>
      <point x="80" y="500" type="line"/>
      <point x="80" y="0" type="line"/>
    </contour>
    <contour>
      <point x="392" y="0" type="line"/>
      <point x="392" y="350" type="line"/>
      <point x="392" y="450"/>
      <point x="331" y="511"/>
      <point x="237" y="511" type="curve" smooth="yes"/>
      <point x="142" y="511"/>
      <point x="87" y="450"/>
      <point x="87" y="350" type="curve"/>
      <point x="102" y="350" type="line"/>
      <point x="102" y="437"/>
      <point x="153" y="490"/>
      <point x="236" y="490" type="curve" smooth="yes"/>
      <point x="319" y="490"/>
      <point x="370" y="437"/>
      <point x="370" y="350" type="curve"/>
      <point x="370" y="0" type="line"/>
    </contour>
  </outline>
</glyph>
<glyph name="n" format="1">
  <advance width="476"/>
  <unicode hex="006E"/>
  <outline>
    <contour>
      <point x="402" y="0" type="line"/>
      <point x="402" y="350" type="line" smooth="yes"/>
      <point x="402" y="450"/>
      <point x="341" y="511"/>
      <point x="242" y="511" type="curve" smooth="yes"/>
      <point x="146" y="511"/>
      <point x="87" y="450"/>
      <point x="87" y="350" type="curve"/>
      <point x="102" y="350" type="line"/>
      <point x="102" y="437"/>
      <point x="155" y="490"/>
      <point x="241" y="490" type="curve" smooth="yes"/>
      <point x="327" y="490"/>
      <point x="380" y="437"/>
      <point x="380" y="350" type="curve" smooth="yes"/>
      <point x="380" y="0" type="line"/>
    </contour>
    <contour>
      <point x="102" y="0" type="line"/>
      <point x="102" y="500" type="line"/>
      <point x="80" y="500" type="line"/>
      <point x="80" y="0" type="line"/>
    </contour>
  </outline>
</glyph>
<glyph name="o" format="1">
  <advance width="458"/>
  <unicode hex="006F"/>
  <outline>
    <contour>
      <point x="328" y="-11"/>
      <point x="390" y="51"/>
      <point x="390" y="150" type="curve" smooth="yes"/>
      <point x="390" y="350" type="line" smooth="yes"/>
      <point x="390" y="449"/>
      <point x="328" y="511"/>
      <point x="229" y="511" type="curve" smooth="yes"/>
      <point x="130" y="511"/>
      <point x="68" y="449"/>
      <point x="68" y="350" type="curve" smooth="yes"/>
      <point x="68" y="150" type="line" smooth="yes"/>
      <point x="68" y="51"/>
      <point x="130" y="-11"/>
      <point x="229" y="-11" type="curve" smooth="yes"/>
    </contour>
    <contour>
      <point x="142" y="11"/>
      <point x="90" y="63"/>
      <point x="90" y="150" type="curve" smooth="yes"/>
      <point x="90" y="350" type="line" smooth="yes"/>
      <point x="90" y="437"/>
      <point x="142" y="490"/>
      <point x="229" y="490" type="curve" smooth="yes"/>
      <point x="316" y="490"/>
      <point x="368" y="437"/>
      <point x="368" y="350" type="curve" smooth="yes"/>
      <point x="368" y="150" type="line" smooth="yes"/>
      <point x="368" y="63"/>
      <point x="316" y="11"/>
      <point x="229" y="11" type="curve" smooth="yes"/>
    </contour>
  </outline>
</glyph>
<glyph name="r" format="1">
  <advance width="320"/>
  <unicode hex="0072"/>
  <outline>
    <contour>
      <point x="102" y="0" type="line"/>
      <point x="102" y="500" type="line"/>
      <point x="80" y="500" type="line"/>
      <point x="80" y="0" type="line"/>
    </contour>
    <contour>
      <point x="102" y="340" type="line"/>
      <point x="102" y="427"/>
      <point x="152" y="492"/>
      <point x="234" y="492" type="curve" smooth="yes"/>
      <point x="244" y="492"/>
      <point x="261" y="488"/>
      <point x="270" y="484" type="curve"/>
      <point x="287" y="497" type="line"/>
      <point x="273" y="505"/>
      <point x="253" y="511"/>
      <point x="234" y="511" type="curve" smooth="yes"/>
      <point x="139" y="511"/>
      <point x="85" y="438"/>
      <point x="85" y="340" type="curve"/>
    </contour>
  </outline>
</glyph>
<glyph name="s" format="1">
  <advance width="430"/>
  <unicode hex="0073"/>
  <outline>
    <contour>
      <point x="312" y="-11"/>
      <point x="378" y="41"/>
      <point x="378" y="120" type="curve" smooth="yes"/>
      <point x="378" y="208"/>
      <point x="294" y="237"/>
      <point x="214" y="265" type="curve" smooth="yes"/>
      <point x="143" y="289"/>
      <point x="76" y="312"/>
      <point x="76" y="375" type="curve" smooth="yes"/>
      <point x="76" y="444"/>
      <point x="132" y="490"/>
      <point x="215" y="490" type="curve" smooth="yes"/>
      <point x="298" y="490"/>
      <point x="354" y="444"/>
      <point x="354" y="375" type="curve" smooth="yes"/>
      <point x="354" y="374" type="line"/>
      <point x="376" y="374" type="line"/>
      <point x="376" y="375" type="line" smooth="yes"/>
      <point x="376" y="457"/>
      <point x="312" y="511"/>
      <point x="215" y="511" type="curve" smooth="yes"/>
      <point x="118" y="511"/>
      <point x="54" y="457"/>
      <point x="54" y="375" type="curve" smooth="yes"/>
      <point x="54" y="295"/>
      <point x="133" y="268"/>
      <point x="210" y="241" type="curve" smooth="yes"/>
      <point x="283" y="216"/>
      <point x="356" y="191"/>
      <point x="356" y="120" type="curve" smooth="yes"/>
      <point x="356" y="55"/>
      <point x="298" y="11"/>
      <point x="212" y="11" type="curve" smooth="yes"/>
      <point x="129" y="10"/>
      <point x="74" y="54"/>
      <point x="74" y="120" type="curve" smooth="yes"/>
      <point x="74" y="121" type="line"/>
      <point x="52" y="121" type="line"/>
      <point x="52" y="120" type="line" smooth="yes"/>
      <point x="52" y="42"/>
      <point x="116" y="-10"/>
      <point x="212" y="-11" type="curve" smooth="yes"/>
    </contour>
  </outline>
</glyph>
<glyph name="t" format="1">
  <advance width="274"/>
  <unicode hex="0074"/>
  <outline>
    <contour>
      <point x="235" y="21" type="line"/>
      <point x="164" y="21"/>
      <point x="121" y="72"/>
      <point x="121" y="158" type="curve" smooth="yes"/>
      <point x="121" y="700" type="line"/>
      <point x="99" y="700" type="line"/>
      <point x="99" y="158" type="line" smooth="yes"/>
      <point x="99" y="58"/>
      <point x="151" y="-1"/>
      <point x="235" y="-1" type="curve"/>
    </contour>
    <contour>
      <point x="235" y="479" type="line"/>
      <point x="235" y="500" type="line"/>
      <point x="35" y="500" type="line"/>
      <point x="35" y="479" type="line"/>
    </contour>
  </outline>
</glyph>
<glyph name="u" format="1">
  <advance width="476"/>
  <unicode hex="0075"/>
  <outline>
    <contour>
      <point x="335" y="-11"/>
      <point x="391" y="50"/>
      <point x="391" y="150" type="curve"/>
      <point x="374" y="150" type="line"/>
      <point x="374" y="63"/>
      <point x="321" y="10"/>
      <point x="235" y="10" type="curve" smooth="yes"/>
      <point x="149" y="10"/>
      <point x="96" y="63"/>
      <point x="96" y="150" type="curve" smooth="yes"/>
      <point x="96" y="500" type="line"/>
      <point x="74" y="500" type="line"/>
      <point x="74" y="150" type="line" smooth="yes"/>
      <point x="74" y="50"/>
      <point x="135" y="-11"/>
      <point x="235" y="-11" type="curve" smooth="yes"/>
    </contour>
    <contour>
      <point x="396" y="0" type="line"/>
      <point x="396" y="500" type="line"/>
      <point x="374" y="500" type="line"/>
      <point x="374" y="0" type="line"/>
    </contour>
  </outline>
</glyph>
<glyph name="v" format="1">
  <advance width="430"/>
  <unicode hex="0076"/>
  <outline>
    <contour>
      <point x="226" y="0" type="line"/>
      <point x="391" y="500" type="line"/>
      <point x="369" y="500" type="line"/>
      <point x="215" y="35" type="line"/>
      <point x="61" y="500" type="line"/>
      <point x="39" y="500" type="line"/>
      <point x="204" y="0" type="line"/>
    </contour>
  </outline>
</glyph>
<glyph name="w" format="1">
  <advance width="642"/>
  <unicode hex="0077"/>
  <outline>
    <contour>
      <point x="197" y="0" type="line"/>
      <point x="321" y="458" type="line"/>
      <point x="445" y="0" type="line"/>
      <point x="467" y="0" type="line"/>
      <point x="602" y="500" type="line"/>
      <point x="580" y="500" type="line"/>
      <point x="456" y="42" type="line"/>
      <point x="332" y="500" type="line"/>
      <point x="310" y="500" type="line"/>
      <point x="186" y="42" type="line"/>
      <point x="62" y="500" type="line"/>
      <point x="40" y="500" type="line"/>
      <point x="175" y="0" type="line"/>
    </contour>
  </outline>
</glyph>
<glyph name="y" format="1">
  <advance width="432"/>
  <unicode hex="0079"/>
  <outline>
    <contour>
      <point x="135" y="-211"/>
      <point x="170" y="-174"/>
      <point x="203" y="-73" type="curve"/>
      <point x="393" y="500" type="line"/>
      <point x="371" y="500" type="line"/>
      <point x="183" y="-67" type="line" smooth="yes"/>
      <point x="152" y="-160"/>
      <point x="123" y="-190"/>
      <point x="67" y="-190" type="curve"/>
      <point x="67" y="-211" type="line"/>
    </contour>
    <contour>
      <point x="218" y="28" type="line"/>
      <point x="61" y="500" type="line"/>
      <point x="39" y="500" type="line"/>
      <point x="207" y="-7" type="line"/>
    </contour>
  </outline>
</glyph>
